<svg width="44" height="44" viewBox="0 0 44 44" fill="none" xmlns="http://www.w3.org/2000/svg">
<path fill-rule="evenodd" clip-rule="evenodd" d="M43.12 22.5005C43.12 20.9405 42.98 19.4405 42.72 18.0005H22V26.5105H33.84C33.33 29.2605 31.78 31.5905 29.45 33.1505V38.6705H36.56C40.72 34.8405 43.12 29.2005 43.12 22.5005Z" fill="#4285F4"/>
<path fill-rule="evenodd" clip-rule="evenodd" d="M22.0001 43.9997C27.9401 43.9997 32.9201 42.0297 36.5601 38.6697L29.4501 33.1497C27.4801 34.4697 24.9601 35.2497 22.0001 35.2497C16.2701 35.2497 11.4201 31.3797 9.69009 26.1797H2.34009V31.8797C5.96009 39.0697 13.4001 43.9997 22.0001 43.9997Z" fill="#34A853"/>
<path fill-rule="evenodd" clip-rule="evenodd" d="M9.69 26.1796C9.25 24.8596 9 23.4496 9 21.9996C9 20.5496 9.25 19.1396 9.69 17.8196V12.1196H2.34C0.85 15.0896 0 18.4496 0 21.9996C0 25.5496 0.85 28.9096 2.34 31.8796L9.69 26.1796Z" fill="#FBBC05"/>
<path fill-rule="evenodd" clip-rule="evenodd" d="M22.0001 8.75C25.2301 8.75 28.1301 9.86 30.4101 12.04L36.7201 5.73C32.9101 2.18 27.9301 0 22.0001 0C13.4001 0 5.96009 4.93 2.34009 12.12L9.69009 17.82C11.4201 12.62 16.2701 8.75 22.0001 8.75Z" fill="#EA4335"/>
</svg>
